<svg xmlns="http://www.w3.org/2000/svg" viewBox="0 0 1024 1024" version="1.1" xmlns:xlink="http://www.w3.org/1999/xlink" transform="matrix(-1,0,0,1,0,0)"><path d="M0 0h1024v1024H0z" fill="#FEFEFE"></path><path d="M668.688 122.75c5.457 5.311 9.779 12.062 10.75 19.688-.453 3.686-1.333 5.535-3.778 8.311-3.207 2.416-6.86 1.959-10.722 1.876-8.05.132-14.45 1.273-21.938 4.375-19.779 8.082-19.779 8.082-28.101 5.297-4.437-2.022-8.241-4.9-12.04-7.93-3.043-2.237-5.038-3.367-8.86-3.367l1.512.926c5.742 3.659 10.867 7.806 15.97 12.29 5.783 5.033 9.43 6.39 17.07 6.315 5.41-.833 9.78-3.257 14.515-5.902 3.947-2.192 6.678-2.749 11.121-2.691l2.73.027L659 162v4a66 66 0 0 1-6.5 4.812q-1.936 1.329-3.866 2.665l-1.898 1.305c-6.143 4.311-10.427 8.463-13.736 15.218.524-.557 1.045-1.114 1.583-1.688C646.247 176.22 662.915 163.67 680 161l-7-1c2.067-2.268 3.814-3.55 6.66-4.684l2.14-.867 2.263-.887 4.655-1.843 2.259-.891c1.627-.666 3.221-1.407 4.805-2.172 7.993-3.832 17.6-4.231 26.116-1.844 12.627 5.737 21.342 16.798 26.28 29.456 1.357 4.509 1.298 8.815 1.178 13.49-.013 1.482-.013 1.482-.024 2.993a976 976 0 0 1-.144 9.374q-.065 4.697-.111 9.395a752 752 0 0 1-.087 5.817c-.06 4.005-.037 7.884.505 11.857.504 3.794.588 7.369.533 11.193l-.038 4.092q-.036 3.17-.086 6.339a913 913 0 0 0-.064 6.194l-.052 3.702c.21 3.254.923 5.33 2.212 8.286 1.609 11.051.404 22.173-5 32l-1.499 1.843c-5.496 6.995-5.308 13.374-5.063 22.032l.005 3.934c.14 10.189 1.935 18.972 5.995 28.316l1.288 3.004c1.49 3.36 3.009 6.706 4.575 10.031.698 1.84.698 1.84.698 4.84l2.415-1.242 3.212-1.633 3.163-1.617c5.484-2.575 10.102-4.174 16.21-3.508 5.216 3.175 7.214 7.706 9.938 12.938 4.162 7.691 8.69 13.37 15.643 18.7 1.744 1.405 1.744 1.405 4.42 4.362.17 1.988.17 1.988.004 4.094l-.005 3.906c2.162 1.977 3.708 3.006 6.25 4.312a562 562 0 0 1 4.395 2.532l2.534 1.461c5.731 3.443 11.235 7.244 16.76 11.007l1.842 1.253c10.012 6.807 19.756 13.883 29.22 21.435l2.942 2.301c34.019 27.086 52.436 59.375 57.406 102.728 2.49 25.739 3.256 52.307-.348 77.971l-.473 3.668c-.852 6.116-2.113 12.028-3.687 17.996a189 189 0 0 0-1.712 7.422c-2.19 10.464-5.06 20.539-8.402 30.691-1.068 3.272-2.083 6.56-3.1 9.848-.872 2.793-1.75 5.584-2.626 8.375-.46 1.469-.46 1.469-.932 2.967a4373 4373 0 0 1-3.13 9.908c-.33 1.046-.658 2.092-.996 3.17a215 215 0 0 1-5.976 16.507c-1.994 5.051-3.58 10.247-5.234 15.417-1.885 5.782-4.072 11.365-6.448 16.963a312 312 0 0 0-3.616 9.099c-9.245 24.171-18.967 48.504-31.668 71.094l-1.487 2.65c-7.826 13.402-19.782 30.026-34.514 36.225-3.437.363-3.437.363-7 .312l-3.562-.011C801 898 801 898 797.802 896.844c-2.694-1.126-2.694-1.126-4.82-.051-.889.69-.889.69-1.793 1.395-4.217 2.984-8.245 4.345-13.188 5.812l8 3v3c-3.784 2.473-7.618 2.3-11.98 2.303l-2.433.026c-2.663.025-5.326.038-7.99.05l-5.625.051c-4.962.046-9.924.081-14.886.113-7.85.051-15.7.118-23.55.188q-4.044.032-8.088.055c-10.09.072-20.159.33-30.241.712-15.34.57-30.67.702-46.018.772q-5.699.03-11.399.067-16.815.102-33.633.189-13.19.07-26.377.152-6.744.041-13.49.071-5.154.027-10.31.062l-3.735.012-3.442.026-2.975.015c-3.007.145-5.866.601-8.828 1.136q-2.247.187-4.5.281l-2.553.112-2.733.107-2.894.122q-4.691.195-9.382.378l-3.276.131q-9.855.393-19.71.759l-7.895.298c-20.975.786-41.945.912-62.932.937l-3.928.008q-5.564.007-11.127 0l-3.378.006c-5.344-.016-10.408-.269-15.692-1.139q-3.324-.27-6.656-.465l-3.817-.233-1.993-.118c-10.562-.631-21.116-1.335-31.659-2.246l-2.83-.24-2.615-.233-2.243-.2C317 914 317 914 314.885 913.493c-3.745-.64-7.435-.646-11.223-.651l-2.505-.015q-2.683-.016-5.365-.026-4.243-.019-8.484-.053c-8.038-.062-16.077-.116-24.115-.149q-7.38-.033-14.762-.101a961 961 0 0 0-5.63-.026 934 934 0 0 1-7.85-.055l-2.363.009c-2.154-.034-2.154-.034-5.587-.426l-2-3c3.204-2.136 4.02-2.231 7.688-2.125l2.449.055L237 907v-2l-2.132-.148C203.786 902.498 203.786 902.498 195 893c-1.529-2.533-2.488-5.143-3.437-7.938l-.846-2.315A555 555 0 0 1 188 875l-2.112-6.047a1261 1261 0 0 1-3.135-9.072c-1.334-3.908-2.658-7.782-4.33-11.561-1.583-3.695-2.773-7.411-3.922-11.258-1.199-3.985-2.423-7.935-3.908-11.824-1.513-4.006-2.943-8.037-4.35-12.082l-1.62-4.645c-.427-1.222-.427-1.222-.86-2.468-6.543-18.77-13.164-37.511-19.811-56.244l-2.04-5.752c-.33-.925-.657-1.85-.996-2.804a3582 3582 0 0 1-7.573-21.587 474 474 0 0 0-3.96-10.987c-1.852-4.915-3.465-9.898-5.1-14.888a239 239 0 0 0-2.686-7.508c-1.55-4.116-2.994-8.264-4.409-12.429-.254-.747-.51-1.493-.773-2.263q-1.614-4.73-3.226-9.463-1.185-3.481-2.376-6.962l-.72-2.119a318 318 0 0 0-3.563-9.948c-1.708-4.52-3.264-9.087-4.814-13.663l-.914-2.688q-1.919-5.64-3.834-11.283-1.406-4.14-2.814-8.279c-.288-.846-.573-1.692-.869-2.564-1.092-3.208-2.193-6.386-3.457-9.531-1.563-3.935-1.482-7.94-.827-12.081 1.98-3.858 4.93-6.53 9-8a127 127 0 0 1 8.848-.261l2.739-.011c3.034-.011 6.068-.007 9.104-.003l6.519-.015c5.909-.014 11.819-.014 17.728-.012q7.399 0 14.798-.008 17.46-.016 34.92-.006c12.005.006 24.01-.006 36.015-.027q15.46-.026 30.92-.021c6.156.002 12.31 0 18.466-.014q8.688-.018 17.377.002 3.184.004 6.37-.009c2.905-.01 5.809-.002 8.713.011l2.53-.023c6.347.058 13.003.944 18.022 5.118 3.328 4.94 5.571 9.77 7.404 15.431l.88 2.602a1104 1104 0 0 1 2.71 8.184q.905 2.693 1.814 5.384c2.703 8.053 5.298 16.124 7.647 24.287 2.44 8.478 5.265 16.806 8.151 25.141 1.544 4.461 3.075 8.928 4.606 13.395l.942 2.743a3430 3430 0 0 1 8.58 25.341q.743 2.223 1.49 4.445c2.849 8.469 5.543 16.964 8.02 25.55 1.726 5.986 3.675 11.881 5.687 17.776l.62 1.885c2.228 6.772 4.642 13.474 7.067 20.177l1.26 3.491q1.525 4.224 3.053 8.447c3.796-.656 5.471-1.064 7.938-4.062 5.456-5.856 12.975-9.394 20.062-12.938q2.625.247 5.25.5c6.34.053 10.054-2.146 15.043-5.655 4.861-3.393 9.853-6.116 15.207-8.657l2.445-1.176c4.945-2.289 9.464-3.62 14.805-4.637 4.173-1.096 5.793-1.77 8.418-5.242 2.054-3.882 3.435-7.98 4.832-12.133q.928-2.578 1.863-5.152 1.831-5.092 3.559-10.219A335 335 0 0 1 504.999 702c.37-.964.738-1.929 1.118-2.923 2.988-7.79 6.02-15.562 9.07-23.327l1.435-3.663a1119 1119 0 0 1 7.07-17.653c7.475-18.196 13-36.601 18.183-55.559C561.266 528.08 561.266 528.08 582 502l1.19-1.505c11.007-13.802 23.527-24.459 38.872-33.183l2.106-1.2c3.567-1.992 6.913-3.535 10.832-4.737 5.524-2.308 7.418-8.098 9.871-13.18 2.182-4.464 4.836-8.532 7.629-12.633l1.351-1.989A950 950 0 0 1 657 429l-2.23.98c-5.374 1.454-10.54 1.349-16.082 1.332l-3.303.049c-9.721.006-17.885-1.524-25.131-8.353-4.76-6.354-7.241-14.039-10.159-21.366-1.598-3.853-3.44-7.559-5.346-11.267-8.654-16.992-8.654-16.992-10.976-26.281-.872-2.361-1.974-3.38-3.774-5.094-1.236-3.713-1.356-7.313-1.562-11.188l-.13-2.271q-.158-2.77-.308-5.541l-2 1c-3.975.382-6.4.3-10-1.5-11.945-9.955-20.249-26.827-22.562-42.25.563-3.25.563-3.25 3.25-6.125 3-1.925 4.817-2.817 8.313-3.125l-1.481-2.883c-1.984-4.652-1.9-8.996-1.812-13.988l.013-2.795c.016-2.924.054-5.848.092-8.772q.024-2.987.041-5.974c.034-4.863.086-9.725.147-14.588l-3.042-.341-4.032-.487-1.996-.219c-6.986-.869-12.77-3.607-18.93-6.953l-2.61-1.34c-13.322-7.319-25.976-19.832-30.39-34.66-.375-4.373-.312-8.625 0-13l4-2 1.067 1.977c4.155 7.356 8.522 13.474 16.933 16.023v-2l-1.804-.703c-2.758-1.629-3.724-3.287-5.32-6.047l-1.508-2.547c-3.027-5.984-3.707-11.048-3.68-17.641l-.05-2.341c-.005-6.739 1.332-11.443 5.925-16.596 3.738-3.258 6.207-3.508 11.039-3.492 4.047.619 6.322 2.749 9.398 5.367l-.14-1.977c-.322-7.802 1.505-11.067 6.702-16.898 3.608-2.822 7.243-2.764 11.688-2.547 6.764 1.038 11.294 4.41 15.75 9.422l.41-1.688c2.094-7.421 5.712-12.9 12.329-17.015 3.793-1.509 7.115-1.751 11.136-1.672l2.149.015c3.798.092 7.038.43 10.539 1.922 6.423 2.686 11.844.065 17.966-2.445l2.659-1.117q2.645-1.097 5.293-2.188l2.34-.98c15.208-5.807 29.986-.47 42.866 7.918" fill="#080708"></path><path d="M895 491c19.875 17.39 24.828 54.23 26.764 78.935.49 7.745.633 15.504.708 23.263q.027 2.823.078 5.646c.196 12.397-1.18 22.563-5.55 34.156a778 778 0 0 0-1.895 5.773c-10.103 29.755-21.537 59.087-33.76 88.031a1415 1415 0 0 0-3.919 9.423c-58.719 142.343-58.719 142.343-96.92 158.841-4.08 1.517-8.23 2.3-12.506 3.057q-2.532.471-5.062.945l-2.493.458c-2.389.461-4.757.983-7.129 1.527-11.951 2.693-24.31 3.224-36.504 4.007l-3.658.241c-27.119 1.649-54.214 1.836-81.372 1.766q-6.76-.014-13.52-.02-13.131-.017-26.262-.049l1.282-2.476 1.663-3.258 1.657-3.226c1.616-3.514 2.224-6.211 2.398-10.04-2.762 1.381-2.802 2.812-3.812 5.688-1.844 4.706-3.332 7.982-7.188 11.312-2.853.489-5.077.297-8 0l-.227-2.047-.398-2.703-.352-2.672c-1.481-3.731-3.535-4.672-7.023-6.578-3.667-.546-3.667-.546-7.586-.391l-2.127.018c-2.221.022-4.441.072-6.662.123q-2.271.03-4.543.055c-3.695.044-7.388.113-11.082.195l-.148-3.734c-.993-22.811-6.51-41.04-16.852-61.266a2130 2130 0 0 1-2-4c5.902-3.221 11.387-5.072 17.938-6.5l5.562-1.266 2.789-.623a593 593 0 0 0 7.649-1.783l2.308-.553 4.248-1.019c1.832-.434 3.669-.845 5.506-1.256l3.16-.859c2.84-.141 2.84-.141 5.438 1.402 2.661 2.721 4.816 5.564 6.84 8.769l1.172 1.845C590.457 831.301 596.883 845.75 596 859h2c-.251-20.137-5.996-37.233-19-53l9-3 1.947-.676c5.867-2.012 11.791-3.616 17.803-5.136 7.452-1.912 14.866-3.907 22.25-6.063 19.18-5.574 38.611-10.339 58-15.125l4-1 .918-3.551 1.27-4.761.595-2.323c1.196-4.435 2.671-8.5 4.639-12.654 2.858-6.088 4.783-12.32 6.64-18.773l1.051-3.592c2.104-7.306 3.959-14.616 5.527-22.054 4.389-20.779 11.268-40.591 21.36-59.292l1.418-2.652c6.476-11.414 14.964-21.988 23.937-31.528 1.712-1.731 1.712-1.731 2.645-3.82-6.373 4.615-12.725 9.253-19 14-1.872-29.437 12.879-58.225 31.586-80.012C795.42 520.412 821.211 503.928 851 494l2.164-.728c13.358-4.333 28.025-4.749 41.836-2.272m-787.087 90.619 2.76-.014c3.057-.012 6.114-.003 9.172.007l6.57-.016c5.951-.014 11.903-.009 17.856.001 6.223.008 12.447.001 18.671-.004q16.685-.007 33.371.019 15.127.019 30.253-.003 17.566-.025 35.132-.013c6.2.004 12.398.005 18.597-.005q8.742-.013 17.485.015 3.212.006 6.423-.004c2.92-.008 5.837.002 8.756.017l2.577-.02c4.634.046 7.724.362 11.464 3.401 4.684 7.482 6.854 16.319 9.5 24.687l1.433 4.475c3.34 10.435 3.34 10.435 4.89 15.555 3.08 10.152 6.442 20.206 9.806 30.267l1.911 5.732q2.5 7.491 5.003 14.982l5.08 15.22A70812 70812 0 0 0 375 727l.8 2.396.795 2.386.714 2.139c1.197 3.605 2.372 7.217 3.546 10.829l.796 2.448q.84 2.575 1.674 5.15l2.62 8.056a4320 4320 0 0 1 10.501 32.774c2.011 6.296 4.211 12.455 6.741 18.564C404 814 404 814 404 817l-3.856.008c-22.277.363-44.773 5.873-61.144 21.992-2.674 3.882-3.516 6.253-3 11 1.722 3.248 1.722 3.248 5 4-1.424 3.055-3.147 5.652-5.125 8.375-1.942 2.891-2.847 4.455-3.438 7.937.658 3.144 1.084 4.609 3.563 6.688 5.827 1.049 9.315-.977 14.082-4.004L352 872l2 1-1.68 2.047-2.195 2.703-2.18 2.672c-3.13 4.05-3.13 4.05-3.922 8.937l.352 2.391.336 2.422.29 1.828c4.826 1.609 8.566 1.631 13.253-.434l3.308-2.004 1.797-1.07c5.091-3.064 10.09-6.296 15.022-9.609 2.818-1.866 5.245-3.365 8.62-3.883l-1.103 1.434A592 592 0 0 0 381 887l-1.735 2.254c-3.756 5.142-5.257 8.354-4.265 14.746.897 2.148.897 2.148 3 3 7.45 1.585 12.953-3.109 19-7l2.726-1.777C418.518 886 418.518 886 425 886c2.733 6.149 3.371 13.776 1.277 20.227-2.049 3.898-4.39 5.876-8.277 7.773-2.962.387-2.962.387-6.284.396l-3.792.018q-2.047-.02-4.096-.043l-2.122-.011c-16.015-.099-31.878-1.479-47.802-3.083-2.935-.292-5.872-.57-8.809-.848a3259 3259 0 0 1-18.182-1.765l-3.18-.316C321 908 321 908 318.964 907.484c-2.446-.603-4.795-.747-7.31-.898l-3.27-.21-3.556-.224c-14.987-1.009-29.902-2.502-44.833-4.129q-4.276-.465-8.555-.916c-44.018-4.634-44.018-4.634-51.128-11.81-1.998-3.497-3.11-7.216-4.312-11.047-1.86-5.812-3.805-11.556-6-17.25-3.288-8.577-6.472-17.11-9.043-25.938-.9-2.877-1.937-5.675-3.009-8.492-1.232-3.339-2.389-6.703-3.542-10.07l-.71-2.074q-1.469-4.294-2.935-8.59c-4.553-13.371-4.553-13.371-9.699-26.524-1.989-4.927-3.54-9.943-5.035-15.039-.927-2.952-1.982-5.825-3.084-8.716-1.23-3.335-2.385-6.694-3.537-10.057l-.71-2.074q-1.469-4.294-2.935-8.59c-2.499-7.314-5.018-14.609-7.76-21.836a731 731 0 0 1-2.939-8.875c-1.033-3.04-2.146-6.038-3.282-9.041-1.284-3.429-2.502-6.881-3.718-10.334l-.788-2.234a707 707 0 0 1-5.317-15.707c-.963-2.826-2.016-5.61-3.072-8.402-2.307-6.271-4.412-12.617-6.569-18.94-2.24-6.528-2.24-6.528-4.812-12.928-2.37-5.579-4.175-11.345-6.067-17.102l-1.209-3.654q-1.113-3.366-2.223-6.734a549 549 0 0 0-2.11-6.271c-.924-2.867-1.378-4.802-.895-7.778 3.558-3.933 7.988-3.42 12.913-3.381" fill="#DDD"></path><path d="M803 418c29.967 15.43 64.825 39.705 86 66l-1.886.012c-44.775.514-82.501 21.263-114.302 51.863-22.45 23.113-36.772 53.369-36.913 85.875-.09 9.581-1.725 15.113-7.419 22.762-14.132 19.043-19.704 46.422-24.6 69.096-2.598 12.025-6.094 23.393-10.453 34.88-2.206 5.846-4.022 11.397-4.961 17.586C688 768 688 768 686 770a110 110 0 0 1-6.449 1.805l-1.969.5c-2.088.53-4.179 1.05-6.27 1.57q-3.052.769-6.104 1.541-2.032.514-4.066 1.024c-6.1 1.534-12.171 3.171-18.239 4.83C640 782 640 782 638 782q-.037-7.81-.055-15.619-.008-2.643-.02-5.285c-.078-15.965.456-31.827 2.013-47.721.72-7.749 1.252-15.49 1.661-23.261 1.745-32.56 5.337-64.969 9.963-97.239l.43-3c2.767-19.191 5.915-38.33 9.883-57.313l.755-3.638c1.931-9.17 4.104-18.267 6.453-27.338 1.17-4.515 2.261-8.96 2.917-13.586h-3l-.551 2.09-.761 2.848-.739 2.777a133 133 0 0 1-2.336 7.25c-1.954 5.803-3.298 11.743-4.665 17.707q-.666 2.894-1.343 5.785c-3.937 16.557-3.937 16.557-6.344 33.378-.251 2.085-.664 4.033-1.162 6.071-1.404 6.184-2.244 12.439-3.122 18.715l-.565 3.986q-.903 6.414-1.787 12.831l-.307 2.219c-3.415 24.735-6.455 49.437-8.318 74.343l-.255 3.37c-2.579 34.2-4.438 68.331-4.745 102.63-27.48 8.512-27.48 8.512-40 11-2.828-31.344-4.746-62.657-6.048-94.095l-.088-2.101q-.205-4.886-.395-9.772c-.206-5.058-.445-10.081-.976-15.115-.754-7.794-.792-15.622-.939-23.446q-.084-4.44-.177-8.879-.161-7.857-.315-15.713-.244-12.51-.502-25.019-.087-4.312-.167-8.623c-.254-12.757-.754-25.493-1.393-38.237h-1a305 305 0 0 0-1.552 20.782l-.127 3.024c-.404 10.228-.484 20.447-.489 30.682l-.012 5.956q-.014 7.83-.009 15.659.002 4.845 0 9.689c-.335 50.513-.335 50.513 2.973 100.876 1.515 16.355 1.155 32.475-4.881 47.91-.976 2.462-.976 2.462-1.573 5.286-1.023 3.413-1.951 5.46-4.33 8.136-5.689 2.929-12.332 3.742-18.562 4.875-3.381.666-6.756 1.357-10.129 2.055l-2.463.501c-8.84 1.867-19.771 4.456-25.096 12.444-.942 2.668-1.309 5.335-1.75 8.125-18.32.765-28.315-3.648-42.055-15.82-3.836-3.951-4.871-7.934-6.117-13.215-2.772-9.924-8.64-18.978-16.039-26.09C446 773 446 773 446 771c44.523-24.928 44.523-24.928 66.177-19.449 14.23 5.087 23.977 16.471 30.823 29.449 2.464 5.386 4.245 10.029 4 16h2c1.076-15.18-4.977-26.709-14.312-38.312-3.934-4.304-8.522-7.064-13.688-9.688l-1.891-.965c-6.591-2.88-14.026-3.251-21.109-4.035 2.195-6.74 4.572-13.402 7.027-20.051l1.168-3.164q1.866-5.05 3.743-10.097l1.289-3.475c6.082-16.346 12.471-32.446 19.54-48.388 2.004-4.592 3.878-9.234 5.733-13.887l.917-2.291c.875-2.21 1.731-4.427 2.583-6.647l.971-2.466c2.705-7.085 4.588-14.301 6.349-21.667C557.019 571.434 568.226 525.662 598 495l2.039-2.262c8.147-8.742 18.922-16.082 29.961-20.738h2c-.953 5.263-2.532 10.311-4.062 15.43-1.482 5.641-2.078 11.059-2.063 16.882l-.008 3.114c-.04 2.562-.04 2.562 1.133 4.574 6.213-.339 9.216-2.168 13.75-6.312l1.826-1.621c8.723-7.871 16.436-16.623 23.424-26.067l2 2c3.709 2.473 6.705 2.751 11 2l3.25-1.625C685 479 685 479 687 479.5c6.42 4.815 11.853 10.198 17.188 16.188q2.403 2.658 4.812 5.312l2.559 2.871 2.566 2.754 2.32 2.539c3.425 2.461 5.423 2.421 9.555 1.836 2.484-1.395 2.484-1.395 4.5-3.5l2.312-2.227a171 171 0 0 0 7.383-8.152c2.009-2.361 4.09-4.645 6.18-6.933 3.894-4.316 7.592-8.759 11.246-13.278a442 442 0 0 1 6.418-7.65c5.905-6.904 11.493-14.006 16.961-21.26l1.442-1.903A1043 1043 0 0 0 803 418" fill="#DDD"></path><path d="M737.32 255.594c6.087 5.096 9.033 11.872 10.141 19.64.598 12.589-4.3 25.154-12.46 34.766-5.094 5.292-10.208 9.189-17 12h-3l1 2c5.191.212 9.125-.408 14-2l.26 1.66c1.31 7.385 3.61 14.325 6.07 21.39.72 2.098 1.41 4.205 2.098 6.314 1.604 4.814 3.39 9.544 5.258 14.26l1.031 2.616c2.547 6.309 5.485 12.274 9.02 18.09 2.39 4.109 2.39 4.109 1.781 6.784-1.97 2.447-4.109 4.482-6.457 6.574l-1.483 1.324c-4.118 3.65-8.365 7.133-12.65 10.586a337 337 0 0 0-7.872 6.695C719.012 425.3 710.61 431.709 702 438l-2.415 1.776a2457 2457 0 0 1-7.398 5.412l-2.337 1.712-2.182 1.58-1.929 1.404C684 451 684 451 681 452c-5.08-7.62-8.984-15.788-13-24l2.054-1.18c19.371-11.643 35.843-34.596 42.325-56.304 1.728-7.003 1.807-13.74 1.806-20.918.002-2.157.02-4.314.04-6.471l.005-4.131.013-3.775c-.23-3.042-.54-4.727-2.243-7.221l-2-1 .047 3.146c.055 3.895.09 7.79.117 11.686q.023 2.517.062 5.033c.272 17.9.272 17.9-3.226 26.135l-1.325 3.25c-3.473 7.008-7.599 12.82-12.675 18.75l-1.914 2.508c-3.762 4.495-8.503 7.873-13.086 11.492l-2.004 1.668C660.793 422.916 644.062 426.67 625 425c-4.4-.734-6.94-1.723-10-5-2.713-4.227-4.707-8.64-6.73-13.228-1.5-3.274-3.109-6.487-4.739-9.698l-.937-1.85q-1.882-3.707-3.767-7.414C589 368.42 589 368.42 589 363l3.218-1.101c11.428-3.702 11.428-3.702 20.782-10.9.72-2.096.72-2.096 1-4l-1.875 1.189c-16.749 9.714-16.749 9.714-26.125 8.812-2.402-3.602-2.344-6.27-2.313-10.437l.006-2.18c.1-5.343 1.068-10.013 2.572-15.144 1.501-6.618 1.502-13.476 1.735-20.24 4.206 3.798 6.627 7.572 9.125 12.626C599.92 327.26 599.92 327.26 604 332v2l1.75.867c1.408.71 2.807 1.44 4.187 2.204 6.265 3.203 12.092 4.028 19.063 2.929 4.313-1.686 7.153-3.88 9.937-7.562 1.911-4.383 2.151-7.957 2.063-12.742l.004-3.707a319 319 0 0 0-.102-7.704c.086-9.032.086-9.032 2.685-12.25 2.384-1.65 4.775-2.828 7.413-4.035q3.307-1.785 6.61-3.578c1.774-.918 3.55-1.836 5.33-2.746q2.735-1.401 5.462-2.816c9.654-4.972 9.654-4.972 14.598-6.86 2.402 5.12 3.755 9.872 4.687 15.438l.393 2.217q.469 2.671.92 5.345 2.374.04 4.75.063c.881.01 1.763.023 2.672.035 2.371-.09 4.3-.486 6.578-1.098l-.08-2.32a906 906 0 0 1-.233-10.555l-.127-3.648c-.128-9.43 1.555-15.963 7.756-23.168l2.246-1.871 2.254-1.942c6.867-4.705 16.015-3.593 22.504 1.098M404 793c9.249.455 17.78 2.945 26.657 5.391 2.362.614 4.731 1.132 7.12 1.632 11.321 2.464 19.758 9.772 28.098 17.415 14.223 12.903 25.338 18.423 44.625 17.748 8.435-.024 8.435-.024 11.281 2.216 1.446 2.142 2.33 4.17 3.219 6.598l1.095 2.795c1.136 3.066 2.157 6.153 3.155 9.267l1.062 3.182c2.286 6.983 3.864 13.303 3.75 20.694l-.027 2.339L534 884c-12.546 6.163-25.13 8.821-39.062 8.875l-2.044.017c-15.11.018-28.02-4.353-41.961-9.791-12.635-4.743-24.473-4.163-36.933.899-8.322 3.861-15.797 8.749-23.223 14.082-5.855 4.044-5.855 4.044-9.527 3.543L379 901c1.191-8.857 8.508-15 15.25-20.25 9.461-7.095 19.139-11.403 30.75-13.75l-1-2c-22.59-1.662-42.996 8.318-60.926 21.523-3.234 2.303-6.401 3.957-10.074 5.477-2.227-.406-2.227-.406-4-1 .161-6.443 3.604-9.737 8-14 19.495-17.726 38.467-22.933 64-24v-2c-27.768-5.369-52.803 5.134-75.766 19.762-2.607 1.445-4.298 1.49-7.234 1.238.454-7.471 3.739-10.564 8.977-15.422 15.979-13.626 35.256-17.393 55.585-18.14l3.346-.131q4.046-.158 8.092-.307l1-3c-6.101-1.124-11.999-1.221-18.188-1.25l-3.251-.062c-7.34-.036-13.595 1.05-20.561 3.312l-3.207.922c-6.995 2.223-13.231 5.204-19.664 8.687-3.059 1.36-4.841 1.711-8.129 1.391l-1-2c9.965-13.093 25.224-19.608 41-23 3.89-.395 7.745-.441 11.652-.441l3.22-.04c3.355-.041 6.71-.063 10.066-.081q5.07-.034 10.14-.092 3.14-.037 6.28-.044l2.864-.031 2.511-.013c2.478-.282 4.12-1.018 6.267-2.258.224-2.411.224-2.411-1-5-2.873-1.648-5.976-2.567-9.125-3.562-14.952-4.927-14.952-4.927-18.434-9.473l-.879-2.027-.933-2.036C404 796 404 796 404 793" fill="#FEFEFE"></path><path d="M776 375c3.704 3.252 5.716 6.965 7.875 11.312 4.452 8.615 8.972 14.307 17.125 19.688-.493 4.963-1.91 7.848-4.812 11.875l-1.203 1.678A558 558 0 0 1 791 425l-1.39 1.902c-7.089 9.686-14.526 19.061-22.154 28.326a969 969 0 0 0-3.854 4.729c-9.096 11.213-18.482 22.079-28.438 32.538l-1.816 1.911-1.742 1.828c-1.514 1.664-2.87 3.386-4.235 5.172-2.539 2.777-3.68 3.383-7.371 3.594l-2.492-2.93c-5.887-6.88-11.826-13.548-18.309-19.875-2.612-2.608-4.997-5.363-7.394-8.168-3.424-3.846-7.128-7.425-10.805-11.027 1.29-3.871 2.958-4.688 6.25-7.062l3.32-2.43 1.732-1.261c4.335-3.183 8.567-6.505 12.82-9.796q3.12-2.409 6.245-4.81c8.057-6.214 15.996-12.514 23.707-19.153 2.677-2.276 5.411-4.445 8.176-6.613 11.101-9.06 22.418-19.453 29.75-31.875l1.664-2.766z" fill="#DDD"></path><path d="M630 205c2.164 1.391 2.164 1.391 4 4 .523 3.371.455 6.72.438 10.125.211 9.84 1.589 16.065 7.937 23.75 3.757 2.801 8.473 3.47 12.945 4.545 10.781 2.708 17.535 9.429 23.618 18.455C680 268 680 268 680 270a3075 3075 0 0 1-17.242 8.6q-2.936 1.458-5.864 2.931c-2.806 1.41-5.62 2.802-8.437 4.192l-2.639 1.341-2.487 1.214-2.173 1.083c-3.535 1.047-6.274.002-9.596-1.361-2.841-1.109-5.548-1.579-8.562-2v-1l10-2 1-5c-6.999-4.666-20.068-2.093-28.039-.695-4.178.981-8.477 2.107-11.961 4.695-1.154 3.017-.982 4.945 0 8h-2l-2 6c-5.08.788-5.08.788-8 0-1.87-2.103-3.157-4.306-4.566-6.738-2.832-4.467-7.498-6.734-12.434-8.262l-8-1v-40l16-1c20.439-4.088 33.699-13.533 46.203-29.863 3.307-3.932 5.787-4.75 10.797-4.137M233 709c10.889 4.356 16.71 13.383 21.609 23.594 5.391 13.203 7.776 26.517 2.559 40.129-1.854 3.614-3.3 4.988-7.168 6.277-5.857.82-9.134-.689-13.738-4.059-10.415-8.94-18.011-23.379-19.495-37.099-.575-9.227-.853-18.266 5.233-25.842 3.702-3.267 6.055-3.512 11-3" fill="#FEFEFE"></path><path d="M572 897c1.366 2.732 1.128 4.982 1 8-1.515 1.515-2.924 1.232-5.04 1.357l-2.625.163-2.886.164-2.995.181q-4.883.291-9.766.573l-6.761.399q-6.796.402-13.592.794-6.996.406-13.993.834c-28.746 1.753-57.537 2.843-86.342 2.535l3-11 2.442-.018q15.498-.119 30.996-.294l2.508-.029c23.636-.272 47.167-.901 70.749-2.643l5.395-.395 2.534-.186c8.46-.581 16.901-.569 25.376-.435" fill="#DDD"></path><path d="M622.531 293.754c4.716 1.617 7.847 2.829 10.47 7.246v3l-2.126.75c-2.993 1.162-2.993 1.162-5.625 3.375-4.258 2.457-7.445 2.959-12.25 1.875-3.25-1.704-6.13-3.72-9-6 1.873 5.126 3.306 7.909 8 11l1.812 1.25c4.183 1.434 8.157 1.725 12.157-.195 3.686-2.484 6.06-4.998 8.031-9.055 2.535 3.803 2.331 6.908 2.312 11.313.016.747.032 1.494.05 2.263.003 4.869-.672 8.213-3.362 12.424-3.98 2.844-7.758 3.663-12.567 3.469-6.38-1.23-11.762-5.003-15.558-10.22-2.769-4.646-5.003-9.583-7.25-14.5l-1.087-2.365c-3.252-7.4-3.252-7.4-2.538-11.384 7.478-7.084 18.877-6.307 28.531-4.246" fill="#FEFEFE"></path><path d="M661 435h2l.794 1.513q1.789 3.4 3.581 6.799l1.25 2.381 1.211 2.295 1.111 2.111c.933 1.684 1.985 3.299 3.053 4.901v3l-2.375 1.312c-2.852 1.431-2.852 1.431-3.387 4.254-1.705 4.73-4.57 8.149-7.676 12.059l-1.775 2.273a943 943 0 0 1-3.285 4.183c-1.553 1.926-1.553 1.926-2.943 4.138C651 488 651 488 649.099 488.454l-2.111-.063-2.295-.039-2.381-.102-2.416-.055A400 400 0 0 1 634 488c1.315-9.202 5.66-16.918 10-25l1.125-2.095c9.973-18.432 9.973-18.432 15.875-25.905" fill="#DDD"></path><path d="M236.2 704.809c13.514 6.817 20.765 19.287 25.765 33.03 3.814 11.645 4.848 23.642.035 35.16-2.918 5.254-6.2 9.068-12 11-7.893.775-13.076-2.253-19.063-7.061-10.759-9.938-18.495-26.621-19.273-41.305-.2-10.084.065-18.486 6.773-26.57 5.713-4.6 10.526-6.914 17.762-4.254m-12.888 6.19c-4.929 6.396-6.992 11.798-6.75 19.876l.05 2.41c.201 6.014.917 11.18 3.388 16.715l.814 1.836c4.97 11.014 10.44 22.16 22.186 27.164 3.816.518 6.1.335 9.687-1 4.773-4.127 6.95-10.27 7.551-16.453.416-15.68-4.68-32.035-14.8-44.172-4.562-4.787-9.08-8.001-15.813-8.75-3.693.07-3.693.07-6.313 2.375" fill="#131213"></path><path d="M440.902 775.031c9.922 6.856 15.383 17.177 20.098 27.97v2c-3.185-1.096-5.797-2.499-8.563-4.376-8.447-5.358-18.159-7.08-27.855-8.899-4.633-.939-9.099-2.239-13.582-3.726v-2a103 103 0 0 1 6.5-4.438l1.943-1.23c14.56-9.04 14.56-9.04 21.46-5.3" fill="#DDD"></path><path d="M551 298c17.452-.818 17.452-.818 24.691 5.469C577 305 577 305 577.188 307.688L577 310c-7.235-.683-7.235-.683-10-4l-3-1c2.218 6.114 2.218 6.114 6.312 11 3.22 1.198 6.277 1.666 9.688 2 .082 1.895.139 3.791.188 5.688l.105 3.199c-.333 3.538-1.083 5.346-3.293 8.113-3.446.747-4.772.986-8 0-7.587-5.229-11.272-15.888-15-24l-.9-1.843c-1.821-3.882-2.413-6.885-2.1-11.157" fill="#FEFEFE"></path><path d="M729 260c5.404 2.333 8.458 6.376 10.75 11.688 3.03 8.938 1.18 16.953-2.75 25.312-2.96 4.624-2.96 4.624-6.25 5.812L729 303c1-2.514 2.008-5.02 3.07-7.508 2.904-7.206 4.737-14.309 2.094-21.89-1.44-3-2.803-5.241-5.164-7.602-3.701-.494-5.512-.288-8.75 1.625-2.545 2.686-3.36 4.817-4.25 8.375l2.625.75c4.055 1.502 8.364 3.228 10.375 7.25.466 4.658.75 7.638-2.25 11.375-3.293 3.143-4.956 4.543-9.5 4.75L715 300c1.287-3.861 3.309-4.952 6.504-7.305 1.764-1.657 1.764-1.657 1.711-4.39L723 286l-2.371-1.242-3.067-1.633-3.058-1.617C712 280 712 280 711 278c-.672-4.797-.051-7.425 2.75-11.25 4.383-5.535 8.018-7.804 15.25-6.75" fill="#131213"></path><path d="M675 787c5.517.376 8.679 2.628 12.688 6.188l1.844 1.62C700.601 804.821 708.199 816.829 715 830l1.633 3.07c3.133 6.285 4.218 11.921 4.367 18.93-1.875-.242-1.875-.242-4-1-1.122-1.787-1.122-1.787-2.008-4.129l-1.034-2.613-1.083-2.82c-7.815-19.192-19.244-34.411-34.167-48.658-1.271-1.225-2.494-2.499-3.708-3.78z" fill="#080708"></path><path d="M737.153 757.542c12.178.26 23.985 5.534 33.847 12.458l3 2.062c2.24 2.17 3.096 3.977 4 6.938-3.351-.566-5.987-2.016-8.921-3.68-13.1-7.418-26.132-11.005-41.08-12.32-.561-1.938-.561-1.938-1-4 2.197-2.196 7.144-1.43 10.154-1.458M725.625 137.25c5.564 3.216 9.822 7.42 13.375 12.75.125 2.688.125 2.688 0 5l-2.937-2.625C724.246 142.334 713.676 137.984 698 139c-2.38.232-4.65.552-7 1 .223-1.859.223-1.859 1-4 10.958-7.173 22.802-4.299 33.625 1.25" fill="#131213"></path><path d="M632 362c5.03-.296 7.934-.05 12 3l1.812 1.188c2.007 3.062 1.364 6.225 1.188 9.812-3-1-3-1-4.562-4L641 369l-2-1-.289 1.785c-1.63 5.078-6.942 8.162-11.336 10.777-5.846 2.924-11.805 4.981-18.375 3.438l-2-3 2.895-.629c9.533-2.219 17.996-5.262 25.105-12.371h3v-2l-6-2z" fill="#080708"></path><path d="m633 303 2 4c-6.389 9.244-6.389 9.244-11 11-5.972.783-9.307-.137-14.234-3.57-2.382-1.929-4.158-3.817-5.766-6.43v-4c2.237 1.077 4.187 2.139 6.188 3.625 3.973 1.943 7.464 2.091 11.812 1.375 3.257-1.782 3.257-1.782 6-4 1.646-.716 3.307-1.403 5-2" fill="#131213"></path><path d="M563 167c5.298.321 8.549 3.259 12 7 5.45 7.093 10.069 14.621 14.492 22.387 1.714 2.97 3.553 5.797 5.508 8.613-2.701 0-4.431-.444-6.387-2.355-2.873-3.693-5.178-7.611-7.429-11.707-4.306-7.833-9.09-15.24-16.45-20.583L563 169zm-29 16c3.039 3.337 3.377 5.628 3.406 10.086l.067 3.57.027 3.719a653 653 0 0 0 .094 7.273l.021 3.256c.442 3.552 1.724 5.952 3.385 9.096v3c-2.972-1.025-3.937-1.899-5.618-4.612-1.598-3.918-1.726-6.753-1.675-10.974l.013-2.127c.017-2.221.054-4.441.092-6.662q.023-2.272.042-4.543c.032-3.694.084-7.388.146-11.082" fill="#DDD"></path><path d="M685 109c3.565.204 5.019 1.016 7.812 3.312 3.035 3.923 2.662 8.111 2.559 12.883-.36 2.722-.977 4.466-2.371 6.805h-2l-.297-2.344c-.965-6.72-2.463-11.716-5.703-17.656z" fill="#080708"></path><path d="m656 167 2 1v3c-1.949 1.402-1.949 1.402-4.688 2.938-6.319 3.816-11.364 8.508-16.66 13.585C634 190 634 190 632 191c3.157-11.224 15.04-17.727 24-24" fill="#E7E7E7"></path><path d="M770 376c-1.394 4.435-3.606 6.874-7 10-3-1-3-1-5-4 0-2.062 0-2.062 1-4 3.734-1.697 6.922-2.24 11-2" fill="#BEC1C1"></path><path d="M553 175c3.031 1.059 3.956 1.929 5.668 4.715l1.52 3.223 1.542 3.214c1.835 4.115 2.385 7.062 2.332 11.536l-.027 3.011L564 203h-1l-.664-2.895c-1.849-7.662-4.048-14.214-8.164-21.031C553 177 553 177 553 175" fill="#DDD"></path><path d="M613 391h16l-2 4c-3.745 1.248-7.081 1.474-11 1-2-1.375-2-1.375-3-3z" fill="#131213"></path><path d="M534 183c3.401 4.535 3.339 5.791 3.188 11.25l-.083 3.828L537 201l-3 1z" fill="#DDD"></path><path d="m693 903 22 1v1c-10.361.834-20.609 1.123-31 1v-1l9-1z" fill="#A3A3A1"></path><path d="m622 379-5 2v2l2 1c-1.624.081-3.25.139-4.875.188l-2.742.105L609 384l-2-3a655 655 0 0 1 5.812-1.562l3.27-.879C619 378 619 378 622 379" fill="#1D1C1E"></path><path d="m482 908 18 1v1c-9.696.93-19.273 1.112-29 1v-1l11-1z" fill="#A3A3A1"></path><path d="m641 178 2 1c-3.227 4.095-6.591 8.057-10 12l-1-2q1.685-2.19 3.375-4.375l1.898-2.461C639 180 639 180 641 178m79 253c0 3.589-.664 4.109-3 6.688l-1.688 1.886L714 441l-2-1v-3c1.75-1.605 1.75-1.605 4-3.188l2.25-1.605z" fill="#D3D4D4"></path><path d="M429 776c-1 3-1 3-3.812 4.75-3.328 1.305-3.984 1.279-7.188.25a784 784 0 0 1 4.375-2.5l2.461-1.406C427 776 427 776 429 776" fill="#BEC1C1"></path><path d="M555 904v3h-9l-1-2c3.215-1.607 6.436-1.057 10-1" fill="#D3D4D4"></path><path d="M457 796c2.686 2.686 3.06 5.376 4 9l-5-2c0-2.621.313-4.509 1-7" fill="#A8ABAE"></path><path d="M645 585h2l-1 14h-1c-.779-5.021-1.13-8.977 0-14" fill="#BEC1C1"></path><path d="m580 553 2 1c.125 5.75.125 5.75-1 8h-2c-.098-6.152-.098-6.152 0-8z" fill="#373737"></path><path d="m352 872 2 1-5 6-3-3z" fill="#BEC1C1"></path><path d="M661 435h2c-.376 2.782-.673 4.588-2.438 6.812C659 443 659 443 657 443c1.125-2.972 2.223-5.334 4-8" fill="#D3D4D4"></path><path d="M714 701h2c-.857 8.571-.857 8.571-3 12-.143-8.571-.143-8.571 1-12" fill="#BEC1C1"></path><path d="M657 558h2c.188 3.312.188 3.312 0 7l-3 3z" fill="#D3D4D4"></path><path d="M672 159c6.152.586 6.152.586 8 1l1 2-8 1z" fill="#DDD"></path><path d="m229 904 8 1v2h-7z" fill="#A3A3A1"></path><path d="M597 888h2v7l-2-2-2 1z" fill="#504F4F"></path><path d="m385 879 2 1-5 5-3-3a101 101 0 0 1 6-3" fill="#BEC1C1"></path><path d="M593 787h1l1 8h-3a197 197 0 0 1 0-7z" fill="#D3D4D4"></path></svg>